PathFileType	4	(X/Y/Z)	C:/Users/beibeiliu/ov580/test_trc/capture2\sequence.14_training_dense_right.trc
DataRate	CameraRate	NumFrames	NumMarkers	Units	OrigDataRate	OrigDataStartFrame	OrigNumFrames
120	120	24	19	mm	120	351	400
Frame#	Time	ThumbCMC			ThumbMCP			ThumbIP			ThumbTip			IndexMCP			IndexPIP			IndexTip			MiddleMCP			MiddlePIP			MiddleTip			RingMCP			RingPIP			RingTip			PinkyMCP			PinkyPIP			PinkyTip			BackHand1			BackHand2			BackHand3	
		X0	Y0	Z0	X1	Y1	Z1	X2	Y2	Z2	X3	Y3	Z3	X4	Y4	Z4	X5	Y5	Z5	X6	Y6	Z6	X7	Y7	Z7	X8	Y8	Z8	X9	Y9	Z9	X10	Y10	Z10	X11	Y11	Z11	X12	Y12	Z12	X13	Y13	Z13	X14	Y14	Z14	X15	Y15	Z15	X16	Y16	Z16	X17	Y17	Z17	X18	Y18	Z18	
350	2.91667	118.18	78.175	-16.2246	118.873	70.6232	-50.6324	130.556	72.4356	-75.4049	153.825	74.7244	-90.6597	149.487	133.095	-50.2753	154.638	145.834	-69.2934	167.926	160.323	-85.9116	166.56	111.546	-66.4861	155.134	89.6733	-84.6521	145.402	68.4275	-54.9618	179.557	98.2877	-63.5447	165.243	71.5299	-79.2432	147.602	63.1007	-53.0554	203.496	95.4473	-46.973	216.804	97.9161	-61.2103	231.465	113.013	-74.2043	181.654	93.8757	-6.60946	174.638	74.7925	19.3908	149.863	99.1732	5.31701	
351	2.925	119.717	74.7035	-15.913	119.745	65.3754	-49.1359	128.599	66.7397	-77.4743	158.536	67.216	-84.2594	154.538	125.937	-52.3148	161.837	140.302	-76.5915	168.895	151.871	-89.6595	169.922	105.215	-65.4783	157.021	83.3875	-86.2808	143.188	64.663	-56.5554	181.921	91.0681	-65.0979	165.92	65.881	-79.104	152.406	53.3548	-53.8084	203.006	86.6203	-45.636	216.835	92.3288	-64.2865	235.482	103.852	-75.7716	179.867	90.5058	-10.0927	172.741	74.5057	19.5244	150.901	97.9175	0.908744	
352	2.93333	118.19	74.0769	-18.4067	117.326	60.949	-50.1857	131.52	61.5939	-78.1607	153.194	58.6829	-85.115	153.407	121.395	-55.7951	161.787	130.741	-76.6347	172.145	143.022	-93.5785	169.034	96.3656	-72.1369	155.171	73.8269	-86.0837	139.772	60.6982	-53.1594	182.917	82.5958	-65.3265	167.634	60.2739	-80.2942	146.652	50.7085	-51.5333	204.092	77.9859	-46.0374	215.644	83.8717	-64.3582	232.601	94.434	-76.9032	183.761	82.6231	-7.65085	172.954	68.6098	18.2147	148.541	95.7258	-1.35228	
353	2.94167	116.286	69.4613	-15.4278	118.898	58.4591	-52.7356	132.011	54.8402	-76.8917	155.752	50.9643	-86.9526	158.018	113.734	-58.9937	160.427	124.617	-81.1388	175.161	133.653	-100.183	169.98	88.7079	-71.0238	159.231	63.6153	-86.9054	143.853	53.1571	-51.8739	183.328	73.413	-69.2297	161.773	50.4262	-78.3466	147.441	43.8697	-52.973	204.762	70.0879	-47.7242	213.128	74.1395	-64.0016	231.584	83.1243	-78.9764	181.328	78.0898	-8.17352	171.936	70.9183	14.3127	150.66	88.7223	1.38086	
354	2.95	114.602	67.5238	-16.4187	113.682	52.1011	-49.2039	127.611	47.2899	-74.0715	150.257	42.1767	-87.0725	156.298	109.525	-64.4093	162.986	115.295	-87.3287	172.826	123.562	-103.416	167.223	80.8945	-76.5269	154.81	55.4044	-86.3587	138.604	49.7004	-49.7144	179.835	66.4936	-67.8109	161.351	40.4195	-77.5654	143.68	37.8504	-48.0641	204.416	63.9968	-50.8679	215.525	63.3472	-64.6309	231.603	70.0025	-80.6627	182.118	71.5917	-10.8941	169.281	66.4191	13.3698	151.446	85.4806	0.00415836	
355	2.95833	113.255	64.8784	-13.9819	112.18	48.2006	-51.3794	121.141	41.0398	-72.2559	148.357	33.2775	-83.6784	158.547	98.5753	-66.2638	161.36	108.131	-92.0468	174.056	112.731	-110.953	167.546	71.318	-73.52	150.868	46.3429	-86.327	134.075	43.9524	-51.7053	176.251	54.9602	-71.6306	153.544	34.3074	-76.8142	139.329	33.882	-45.0819	201.206	55.0494	-52.5357	211.372	51.1832	-65.6608	228.934	56.1205	-80.8188	181.114	68.185	-15.0192	170.334	62.1226	13.5805	150.549	83.7181	-4.15036	
356	2.96667	112.044	63.9242	-16.2683	109.41	44.3402	-48.7936	119.722	34.5358	-70.4459	140.415	25.3059	-83.6646	157.099	92.8591	-69.723	160.967	94.7768	-90.9114	170.325	100.595	-112.473	163.905	62.2099	-79.1486	143.465	39.0484	-84.2502	131.408	40.3429	-49.5433	172.432	47.7814	-71.2319	150.27	25.4368	-73.8367	136.648	26.0453	-45.7398	197.734	41.899	-49.7632	207.891	40.2866	-68.1975	227.547	42.1595	-87.1312	179.852	62.4303	-13.0577	171.674	58.0343	14.1318	147.831	82.2842	-7.67898	
357	2.975	112.705	62.0838	-18.2754	104.281	41.6087	-43.4683	114.277	30.0196	-72.7047	139.239	19.0081	-77.7544	152.979	86.9096	-71.3228	157.44	89.7297	-98.5164	167.798	90.5808	-115.184	157.944	57.8184	-76.1861	139.076	31.7549	-83.0085	128.901	32.2816	-47.4964	171.242	37.181	-68.2465	144.145	19.5342	-72.2493	130.882	24.7993	-41.6418	191.274	35.846	-50.0044	201.99	31.077	-69.2082	219.185	30.3921	-85.2086	178.681	58.6216	-16.6739	167.088	56.0472	14.7773	153.489	77.4972	-7.39863	
358	2.98333	108.076	60.6521	-15.5798	97.5088	38.1653	-42.944	104.402	24.194	-67.1831	125.008	10.7148	-78.8087	147.33	78.668	-73.1898	153.288	76.4426	-96.1961	159.986	76.8032	-121.899	151.913	48.9661	-76.3867	132.181	23.2396	-82.0953	118.642	29.5228	-47.4094	160.523	31.944	-68.9076	134.355	11.1767	-68.7588	123.676	20.2862	-38.2117	187.228	22.972	-48.5177	196.192	17.6413	-70.1057	210.103	12.7773	-90.3438	176.014	50.8269	-18.9196	165.642	49.4104	13.1839	148.092	74.1087	-7.88342	
359	2.99167	100.895	55.0652	-10.3128	90.9932	31.2726	-36.863	90.1369	14.7355	-59.9895	110.39	-2.18818	-73.8262	135.717	63.5414	-75.9741	136.311	60.6132	-104.587	145.221	54.4754	-122.577	140.476	30.1893	-75.2176	117.71	9.0159	-76.0306	107.942	22.6278	-40.8465	147.436	12.5105	-68.7691	120.166	-2.64375	-62.3747	111.099	12.0535	-34.738	174.208	9.02592	-54.0697	179.186	1.05601	-68.2941	195.626	-10.4028	-83.5394	163.875	40.8555	-17.4701	161.556	45.8611	9.70193	142.871	66.4674	-11.4244	
360	3	96.3456	50.857	-9.36948	84.4381	25.7164	-31.8085	82.0093	7.21726	-55.8658	100.614	-10.3718	-66.547	125.454	52.0471	-81.3615	125.014	44.199	-101.242	126.651	40.7454	-122.976	127.489	17.7745	-74.7938	104.165	-0.958176	-67.5096	101.832	15.5887	-34.1213	136.181	0.897418	-67.116	110.462	-9.9891	-56.3446	104.392	3.22498	-28.2813	164.849	-1.22361	-51.9888	169.591	-15.6237	-66.7053	181.097	-26.0687	-82.7367	161.12	35.4951	-20.6653	154.656	44.9224	6.67252	138.14	59.6987	-16.5649	
361	3.00833	93.3125	48.8141	-9.44272	77.4636	24.4131	-30.6889	78.8648	6.61843	-53.5626	98.9276	-10.8867	-60.736	118.146	44.5801	-79.3315	116.994	35.8908	-103.656	116.377	29.6337	-128.328	120.079	15.7578	-72.7716	98.6276	-5.94612	-66.4144	97.0546	7.89738	-28.657	132.369	-1.63761	-61.7434	104.961	-16.8574	-48.2634	99.9241	3.76312	-22.9786	159.287	-6.5098	-49.6131	159.774	-20.9528	-67.839	172.392	-34.9025	-77.8864	157.897	34.5474	-19.846	154.895	41.3125	7.26679	130.4	59.4555	-18.6365	
362	3.01667	94.8915	49.3	-3.59994	76.2315	30.9874	-29.8154	77.3312	14.8419	-52.0807	101.671	-3.17479	-56.5121	111.005	41.0912	-75.5102	108.951	29.4774	-101.459	107.658	21.8584	-123.94	116.171	7.43485	-69.4909	94.8828	-14.7185	-62.1858	89.8034	-6.26912	-26.054	122.652	-4.62005	-61.1472	102.95	-19.6409	-47.6529	99.7037	-2.77822	-16.0544	154.904	-10.8984	-49.1337	155.218	-26.0005	-60.7161	161.33	-40.2792	-79.7375	151.753	34.9451	-23.3308	150.045	43.2543	4.37901	131.79	58.226	-13.6453	
363	3.025	88.7926	51.7146	-1.71587	76.4949	31.7594	-23.0304	77.3132	12.8341	-50.2684	100.098	-4.20659	-53.2136	104.322	38.1848	-76.4249	99.2821	28.4991	-98.4824	100.648	12.9601	-122.528	109.917	4.93185	-68.6865	87.0928	-14.2521	-60.2104	84.0324	-6.21601	-23.9904	118.232	-5.36955	-57.2709	96.804	-21.0627	-41.1693	96.3864	-0.802135	-12.4125	150.33	-14.0243	-47.7251	148.16	-30.4836	-60.3296	152.046	-46.3541	-80.0911	148.991	30.0734	-25.1001	150.942	43.9889	3.55138	130.096	57.1087	-15.0141	
364	3.03333	87.8817	48.5273	-4.90192	72.5304	24.9057	-19.251	65.2355	6.35252	-43.3472	81.4934	-11.9664	-51.4717	102.673	34.052	-74.2794	94.3013	25.3504	-94.0527	88.0189	12.328	-117.966	104.767	2.55779	-67.2245	84.3483	-14.2502	-49.0786	87.3849	1.85665	-18.7677	114.072	-6.77751	-56.6954	93.5792	-21.4527	-37.9341	91.6651	-1.28773	-11.936	144.133	-12.9269	-46.6332	143.154	-33.3909	-57.4468	145.163	-52.4842	-75.7101	147.239	32.2482	-22.563	149.256	44.3615	3.75176	126.382	56.5345	-15.94	
365	3.04167	87.6606	49.6001	-1.47593	67.7806	22.8572	-15.4783	62.2389	3.42364	-36.6924	70.7031	-13.9149	-47.8575	99.4399	34.3176	-70.5759	87.3841	22.3486	-94.9327	81.4119	9.96857	-114.621	99.5635	3.85032	-64.862	78.6313	-11.0831	-48.093	88.0143	6.01784	-17.154	111.235	-6.05895	-54.0189	89.7044	-19.5449	-40.0743	90.735	-3.37325	-9.80362	142.224	-16.2963	-44.3048	137.668	-35.407	-57.5158	137.556	-53.9898	-72.9319	146.415	29.0333	-25.1735	149.169	44.6614	5.07873	122.903	58.7479	-13.8496	
366	3.05	86.7016	51.9472	1.23539	64.6081	24.5724	-16.1089	55.9078	6.60355	-34.4849	68.0031	-13.5295	-48.0287	95.9893	34.0234	-74.0338	85.8984	21.0952	-93.2268	76.7332	8.71993	-113.183	99.5742	6.13245	-62.2055	74.6223	-7.44858	-46.8265	84.8196	10.7647	-17.5596	107.807	-9.01857	-53.2654	87.798	-21.1813	-36.5068	86.3526	3.15872	-8.90423	135.388	-13.0683	-44.3292	130.662	-32.7405	-59.335	130.362	-51.2914	-74.0358	140.928	29.7664	-25.2552	148.489	40.3053	3.77109	126.682	57.5164	-13.6758	
367	3.05833	89.3462	52.5886	-0.490961	65.8369	31.8647	-14.7752	56.6579	12.3772	-35.084	72.7999	-8.03671	-46.2812	97.7832	34.1801	-70.9496	82.577	23.8964	-92.1826	75.9997	10.5861	-109.064	96.6066	6.72995	-63.1525	74.7333	-8.42471	-49.819	84.6216	11.4544	-14.7917	107.338	-7.51181	-52.9065	81.2549	-17.2974	-34.933	84.7283	3.96427	-10.3378	135.041	-18.6821	-44.5318	126.949	-32.7989	-57.3812	126.792	-50.5905	-71.2684	143.444	27.5654	-26.9669	150.913	36.6506	4.27993	123.586	56.3646	-17.5471	
368	3.06667	91.823	57.9132	0.998773	73.3026	39.0617	-20.5428	66.8463	23.5201	-41.8088	87.6577	-1.43893	-47.5946	94.2424	40.2335	-71.8646	84.8649	28.5511	-90.7027	74.3464	14.8881	-111.024	96.9257	11.2109	-63.4699	72.0281	-8.94942	-51.6932	73.0331	4.36584	-16.176	105.68	-3.88129	-54.477	79.9288	-16.7488	-36.2696	83.5541	3.28595	-10.6566	132.81	-15.9269	-43.6779	126.723	-32.0038	-56.2625	128.119	-53.5838	-71.2791	142.972	27.0657	-24.7628	150.829	38.9239	3.61222	130.11	55.2586	-13.3617	
369	3.075	94.1181	61.548	-1.16999	75.6739	47.461	-19.6512	76.8646	25.165	-44.8257	93.6297	2.58352	-44.8873	97.6318	38.7204	-75.5914	86.0095	29.8015	-93.272	76.374	14.881	-114.747	96.5437	11.5469	-65.1384	68.4128	-3.54779	-53.8035	65.2986	5.61638	-19.8834	102.157	-5.52589	-57.5442	78.7928	-13.3997	-45.4405	77.3371	3.67482	-16.7366	128.621	-13.2118	-46.0163	125.664	-31.317	-58.4099	122.283	-54.3428	-76.5094	143.975	28.1277	-23.5724	149.435	35.918	0.222366	132.104	55.6051	-16.1052	
370	3.08333	96.7243	65.18	-3.69113	78.2467	49.4729	-22.2226	76.9999	28.0887	-47.2854	95.8033	8.43506	-42.7582	100.819	42.8041	-74.5423	88.5775	35.9404	-94.0936	78.9376	25.9268	-116.073	95.7849	13.6036	-66.7767	68.7272	0.0440649	-56.3636	64.3388	7.98477	-20.749	105.536	-0.604855	-58.2834	76.1587	-9.3483	-44.4646	77.5725	6.91454	-15.2301	128.746	-14.0698	-49.8393	121.701	-28.2824	-63.3874	120.782	-48.9719	-77.4655	142.914	26.5951	-26.1495	151.033	35.3293	0.299312	131.668	57.1491	-15.8363	
371	3.09167	101.165	64.1595	0.0818867	79.2702	53.0174	-24.3247	75.8354	34.9767	-45.6505	90.345	11.4866	-49.0015	100.614	51.9889	-76.4793	90.7614	40.9063	-98.1909	82.7384	33.1188	-117.398	97.6573	19.9017	-68.0719	65.6198	8.56257	-58.582	64.2485	14.6401	-22.5124	105.841	4.7372	-59.0479	77.4758	-5.83692	-47.4628	76.9134	10.6784	-18.178	127.002	-9.7243	-52.4097	120.875	-25.0284	-64.7932	119.562	-41.267	-84.8803	145.53	28.1213	-28.8714	154.064	36.6673	2.5445	135.195	57.3866	-18.5408	
372	3.1	98.6239	69.4338	0.750076	78.3819	56.096	-22.5858	71.3377	40.7618	-47.2504	84.0333	16.7162	-55.6153	104.963	54.415	-77.2753	92.5003	52.7807	-98.4859	86.1023	42.3081	-120.568	98.4104	24.0402	-70.3781	70.7814	12.8516	-62.786	68.0076	18.2836	-24.6294	107.949	7.73717	-61.076	76.1219	2.66371	-48.074	80.4991	10.8516	-18.6886	129.318	-7.3272	-53.7552	124.117	-21.8502	-64.6846	120.206	-37.9032	-85.795	146.537	32.8534	-27.3796	152.845	38.6649	1.68846	135.263	64.6883	-18.459	
373	3.10833	99.9276	67.6912	-1.86298	76.8743	56.0714	-19.9314	65.7724	44.6067	-43.828	69.8031	24.7338	-63.7175	108.733	61.7122	-75.4707	96.4506	61.5533	-98.216	91.6387	51.8265	-122.041	99.5328	32.8349	-73.1768	75.5707	16.3254	-63.6344	78.5054	23.5702	-26.9982	107.843	14.8993	-63.7209	79.3907	6.92809	-49.6713	82.8408	19.6495	-19.0363	130.257	-3.10855	-59.1109	125.277	-17.4725	-68.3593	119.909	-27.7501	-91.4592	146.131	35.0143	-29.8137	154.416	39.0921	-0.585013	135.744	64.4534	-16.2173	
